<svg id="Слой_1" data-name="Слой 1" xmlns="http://www.w3.org/2000/svg" viewBox="0 0 101 101"><title>log_Монтажная область 30</title><path d="M90.5,22H56V11.69a6.61,6.61,0,0,0-5.17-6.56A6.51,6.51,0,0,0,43,11.51V22H10.5a1.5,1.5,0,0,0,0,3H16l5.35,9.55a1.5,1.5,0,0,0,1,.74L36,37.75v25A1.5,1.5,0,0,0,36.82,64L39,65.18a1.5,1.5,0,0,0,0,.32V94H34.5a1.5,1.5,0,0,0,0,3h31a1.5,1.5,0,0,0,0-3H62V60.36l3-1.1a1.5,1.5,0,0,0,1-1.41V38.64l12.08-3.38a1.5,1.5,0,0,0,.9-.71L84.33,25H90.5a1.5,1.5,0,0,0,0-3ZM46,11.51a3.51,3.51,0,0,1,4.24-3.44A3.61,3.61,0,0,1,53,11.69V22H46ZM42,94V66.7l17,8.71V94ZM59,72,39,61.79V36.48a1.47,1.47,0,0,0,0-.19s0-.08,0-.11a1.48,1.48,0,0,0,0-.16s0-.08,0-.12l-.07-.14-.07-.12-.11-.13-.08-.09-.14-.11-.09-.07-.14-.08-.12-.06-.14,0-.15,0h0L23.6,32.47,19.42,25H53V61.5a1.5,1.5,0,0,0,2,1.41l4-1.45ZM56,59.36V25h7V56.8ZM76.67,32.54,66,35.52V25H80.9Z"/></svg>