<svg id="Слой_1" data-name="Слой 1" xmlns="http://www.w3.org/2000/svg" viewBox="0 0 101 101"><title>log_Монтажная область 13</title><path d="M87.77,19.94l-6-6a1.5,1.5,0,0,0-2.12,0L72.9,20.69a5.71,5.71,0,0,0-.8,7.09L68.93,31A88.91,88.91,0,0,0,54.32,5.1a4.24,4.24,0,0,0-6.64,0C42.21,11.83,29.5,29.76,29.5,51A59.51,59.51,0,0,0,32,67.84L28.2,71.68a5.74,5.74,0,0,0-7.51.5l-6.75,6.75a1.5,1.5,0,0,0,0,2.12l6,6a1.5,1.5,0,0,0,2.12,0l6.75-6.75a5.75,5.75,0,0,0,1.25-6.25l3-3A88.91,88.91,0,0,0,47.68,96.9a4.24,4.24,0,0,0,6.64,0C59.79,90.17,72.5,72.24,72.5,51A59.51,59.51,0,0,0,70,34.16l4.34-4.34a5.67,5.67,0,0,0,6.72-1l6.75-6.75A1.5,1.5,0,0,0,87.77,19.94ZM26.7,78.19,21,83.88,17.12,80l5.69-5.69a2.75,2.75,0,1,1,3.88,3.88ZM32.5,51C32.5,30.72,44.74,13.47,50,7a1.24,1.24,0,0,1,2,0A85.12,85.12,0,0,1,66.56,33.32l-8.18,8.18C56.57,38.72,54,37,51,37c-5.61,0-10,6.15-10,14a18.86,18.86,0,0,0,1.18,6.7l-7.71,7.71A55.81,55.81,0,0,1,32.5,51ZM58,51c0,6-3.21,11-7,11-2,0-3.88-1.45-5.18-3.7l11.6-11.6A16,16,0,0,1,58,51ZM44.58,55.3A16,16,0,0,1,44,51c0-6,3.21-11,7-11,2,0,3.88,1.45,5.18,3.7ZM69.5,51C69.5,71.27,57.26,88.53,52,95a1.27,1.27,0,0,1-2,0A85.11,85.11,0,0,1,35.44,68.68l8.18-8.18C45.43,63.28,48,65,51,65c5.61,0,10-6.15,10-14a18.86,18.86,0,0,0-1.18-6.7l7.71-7.71A55.82,55.82,0,0,1,69.5,51Zm9.4-24.3a2.81,2.81,0,0,1-3.88,0,2.74,2.74,0,0,1,0-3.88l5.69-5.69L84.59,21Z"/></svg>