<svg id="Слой_1" data-name="Слой 1" xmlns="http://www.w3.org/2000/svg" viewBox="0 0 101 101"><title>log_Монтажная область 29</title><path d="M77.51,90.56A109.82,109.82,0,0,1,63.72,67H66.5a1.5,1.5,0,0,0,0-3H62.55a60.53,60.53,0,0,1-1.86-6.07c-.4-1.62-.76-3.27-1.1-4.93H61.5a1.5,1.5,0,0,0,0-3H59a222.75,222.75,0,0,1-3-29.5v-9A1.5,1.5,0,0,0,54.5,10H52V3.5a1.5,1.5,0,0,0-3,0V10H46.5A1.5,1.5,0,0,0,45,11.5v8.94A240.12,240.12,0,0,1,41.67,50H39.5a1.5,1.5,0,0,0,0,3h1.59c-.34,1.66-.71,3.31-1.11,4.93A60.48,60.48,0,0,1,38.12,64H33.5a1.5,1.5,0,0,0,0,3H37A110,110,0,0,1,23.17,90.56,1.5,1.5,0,0,0,24.34,93H38.92a1.5,1.5,0,0,0,1.5-1.57v-.22c0-.08,0-.15,0-.23a9.94,9.94,0,1,1,19.88,0c0,.08,0,.16,0,.24v.22A1.5,1.5,0,0,0,61.75,93H76.34a1.5,1.5,0,0,0,1.17-2.44ZM48,20.5V13h5v7.54A227.13,227.13,0,0,0,56,50H44.72A244.64,244.64,0,0,0,48,20.5ZM42.89,58.65c.46-1.85.87-3.75,1.26-5.65H56.54c.38,1.91.79,3.8,1.24,5.65s1,3.59,1.59,5.35H41.3C41.91,62.24,42.45,60.46,42.89,58.65ZM63.24,90a12.94,12.94,0,0,0-25.81,0H27.35A108.85,108.85,0,0,0,40.19,67H60.48A108.85,108.85,0,0,0,73.32,90Z"/></svg>