<svg id="Слой_1" data-name="Слой 1" xmlns="http://www.w3.org/2000/svg" viewBox="0 0 101 101"><title>log_Монтажная область 26</title><path d="M51.5,32A1.5,1.5,0,0,0,53,30.5V22.85a.83.83,0,0,1,.82-.85H59.5a1.5,1.5,0,0,0,0-3H53.82A3.84,3.84,0,0,0,50,22.85V30.5A1.5,1.5,0,0,0,51.5,32Z"/><path d="M84,69.22v-.86a10.92,10.92,0,0,0-4.3-8.67l-.14-.1-.66-.39a40.09,40.09,0,0,1-.61-7c0-6.56,8.37-9.7,8.45-9.73a1.5,1.5,0,0,0,.79-2.16L68.1,6.75A1.5,1.5,0,0,0,66.62,6H35.39a1.5,1.5,0,0,0-1.45.72L13.77,40.3a1.5,1.5,0,0,0,.77,2.18c.08,0,8.46,3.17,8.46,9.73A40.25,40.25,0,0,1,22.43,59l-1,.58-.14.1A10.92,10.92,0,0,0,17,68.36v.86a9.7,9.7,0,0,0-5,8.48v3.8A1.5,1.5,0,0,0,13.5,83h26A1.5,1.5,0,0,0,41,81.5V79H60v2.5A1.5,1.5,0,0,0,61.5,83h26A1.5,1.5,0,0,0,89,81.5V77.7A9.7,9.7,0,0,0,84,69.22Zm.1-28.84c-2.94,1.46-8.81,5.2-8.81,11.84a43.84,43.84,0,0,0,.29,5L65,51a4.1,4.1,0,0,1-2-3.53V40.93l2.71-2.86A8.38,8.38,0,0,0,68,32.27V12.56ZM37,9H65V32.27A5.39,5.39,0,0,1,63.53,36l-5.68,6H44.15l-5.68-6A5.39,5.39,0,0,1,37,32.27ZM17.22,40.39,34,12.45V32.27a8.38,8.38,0,0,0,2.29,5.79L38,39.87v7.62A4.1,4.1,0,0,1,36,51l-10.27,6A43.87,43.87,0,0,0,26,52.22C26,45.6,20.17,41.86,17.22,40.39ZM23,62.13l14.48-8.52A7.11,7.11,0,0,0,41,47.49V43l1.41,1.49A1.5,1.5,0,0,0,43.5,45h15a1.5,1.5,0,0,0,1.09-.47L60,44.1v3.4a7.11,7.11,0,0,0,3.48,6.11L78,62.13a7.89,7.89,0,0,1,3,6A9.68,9.68,0,0,0,79.3,68H69.7a9.71,9.71,0,0,0-9.54,8H40.84a9.71,9.71,0,0,0-9.54-8H21.7a9.68,9.68,0,0,0-1.69.16A7.89,7.89,0,0,1,23,62.13ZM38,80H15V77.7A6.7,6.7,0,0,1,21.7,71H31.3A6.7,6.7,0,0,1,38,77.7Zm48,0H63V77.7A6.7,6.7,0,0,1,69.7,71H79.3A6.7,6.7,0,0,1,86,77.7Z"/></svg>