<svg id="Слой_1" data-name="Слой 1" xmlns="http://www.w3.org/2000/svg" viewBox="0 0 101 101"><title>log_Монтажная область 10</title><path d="M81.24,79.08A2.65,2.65,0,0,1,80,76.95V68.81a8.57,8.57,0,0,1,.63-3.09A33.54,33.54,0,0,0,82.55,54a33.53,33.53,0,0,0-1.92-11.72A8.58,8.58,0,0,1,80,39.19V31.05a2.64,2.64,0,0,1,1.24-2.13A6.54,6.54,0,0,0,84,24.71a7.22,7.22,0,0,0-1.32-5.49,3.48,3.48,0,0,0-.87-.86,6.8,6.8,0,0,0-9.71,1.4A2.7,2.7,0,0,1,69.88,21H68.42L51.58,5.4a1.5,1.5,0,0,0-2,0L32.71,21H31.13a2.7,2.7,0,0,1-2.2-1.24,6.8,6.8,0,0,0-9.71-1.4,3.48,3.48,0,0,0-.87.86A7.22,7.22,0,0,0,17,24.71a6.54,6.54,0,0,0,2.72,4.21A2.65,2.65,0,0,1,21,31.05v8.14a8.57,8.57,0,0,1-.62,3.09A33.54,33.54,0,0,0,18.45,54a33.5,33.5,0,0,0,1.92,11.72A8.58,8.58,0,0,1,21,68.81v8.14a2.65,2.65,0,0,1-1.24,2.14A6.54,6.54,0,0,0,17,83.29a7.22,7.22,0,0,0,1.32,5.49,3.48,3.48,0,0,0,.87.86,7.48,7.48,0,0,0,4.28,1.42,6.66,6.66,0,0,0,5.43-2.83A2.7,2.7,0,0,1,31.13,87h7.08a4.46,4.46,0,0,1,1.94.46A24.49,24.49,0,0,0,50.5,89.54a24.5,24.5,0,0,0,10.35-2.08A4.45,4.45,0,0,1,62.79,87h7.08a2.7,2.7,0,0,1,2.2,1.24,6.8,6.8,0,0,0,9.71,1.4,3.48,3.48,0,0,0,.87-.86A7.22,7.22,0,0,0,84,83.29,6.54,6.54,0,0,0,81.24,79.08ZM50.56,8.54,64,21H63.6a4,4,0,0,1-1.95-.55A23.66,23.66,0,0,0,50.5,18a23.67,23.67,0,0,0-11.15,2.5A4,4,0,0,1,37.4,21h-.28ZM80.19,87.07a.48.48,0,0,1-.11.11c-2.25,1.56-4.49.85-5.54-.65A5.73,5.73,0,0,0,69.88,84H62.79a7.43,7.43,0,0,0-3.24.75,21.47,21.47,0,0,1-9.05,1.79,21.46,21.46,0,0,1-9.05-1.79A7.44,7.44,0,0,0,38.21,84H31.13a5.73,5.73,0,0,0-4.66,2.52c-1,1.51-3.29,2.21-5.54.65a.48.48,0,0,1-.11-.11A4.28,4.28,0,0,1,20,83.83a3.6,3.6,0,0,1,1.48-2.29A5.6,5.6,0,0,0,24,76.94V68.81a11.55,11.55,0,0,0-.83-4.17A30.48,30.48,0,0,1,21.45,54a30.49,30.49,0,0,1,1.72-10.64A11.55,11.55,0,0,0,24,39.19V31.05a5.6,5.6,0,0,0-2.53-4.6A3.6,3.6,0,0,1,20,24.17a4.28,4.28,0,0,1,.83-3.23.48.48,0,0,1,.11-.11,4.54,4.54,0,0,1,2.59-.88,3.59,3.59,0,0,1,3,1.53A5.73,5.73,0,0,0,31.13,24H37.4a6.93,6.93,0,0,0,3.41-.93A20.64,20.64,0,0,1,50.5,21a20.63,20.63,0,0,1,9.69,2.11A6.93,6.93,0,0,0,63.6,24h6.28a5.73,5.73,0,0,0,4.66-2.52c1-1.51,3.29-2.21,5.54-.65a.48.48,0,0,1,.11.11A4.28,4.28,0,0,1,81,24.17a3.6,3.6,0,0,1-1.48,2.29A5.6,5.6,0,0,0,77,31.05v8.14a11.56,11.56,0,0,0,.83,4.17A30.48,30.48,0,0,1,79.55,54a30.49,30.49,0,0,1-1.72,10.64A11.55,11.55,0,0,0,77,68.81v8.14a5.6,5.6,0,0,0,2.53,4.6A3.6,3.6,0,0,1,81,83.83,4.28,4.28,0,0,1,80.19,87.07Z"/><path d="M69.5,30h-38A1.5,1.5,0,0,0,30,31.5v45A1.5,1.5,0,0,0,31.5,78h38A1.5,1.5,0,0,0,71,76.5v-45A1.5,1.5,0,0,0,69.5,30ZM68,75H33V33H68Z"/></svg>