<svg id="Слой_1" data-name="Слой 1" xmlns="http://www.w3.org/2000/svg" viewBox="0 0 101 101"><title>log_Монтажная область 28</title><path d="M51.37,51.64a3.19,3.19,0,0,0-1.74,0C49.28,51.8,41,55.75,41,65V83.5a1.5,1.5,0,0,0,3,0V65c0-6.38,5-9.63,6.5-10.45C52,55.39,57,58.64,57,65V83.5a1.5,1.5,0,0,0,3,0V65C60,55.75,51.72,51.8,51.37,51.64Z"/><path d="M85.5,45A1.5,1.5,0,0,0,84,46.5V53H77V48.71a10.35,10.35,0,0,0-2.44-7.33,10.63,10.63,0,0,0-6.87-3.25,18.08,18.08,0,0,0-1-14.35C63,16.44,55,12.83,52,11.71V4.5a1.5,1.5,0,0,0-3,0v7.21c-3,1.12-11,4.73-14.66,12.07a18.08,18.08,0,0,0-1,14.35,10.63,10.63,0,0,0-6.87,3.25A10.35,10.35,0,0,0,24,48.71V53H17V46.5a1.5,1.5,0,0,0-3,0v37a1.5,1.5,0,0,0,3,0V56h8.5A1.5,1.5,0,0,0,27,54.5V48.64s0-.1,0-.14a7.39,7.39,0,0,1,1.7-5.13C30.12,41.8,32.44,41,35.57,41a1.5,1.5,0,0,0,1.28-2.28A14.74,14.74,0,0,1,37,25.11c3.34-6.73,11.38-10,13.47-10.75,2.09.75,10.12,4,13.47,10.75,3.73,7.53.33,13.37.18,13.61A1.5,1.5,0,0,0,65.43,41c3.13,0,5.44.8,6.88,2.37A7.4,7.4,0,0,1,74,48.49c0,.05,0,.1,0,.15V54.5A1.5,1.5,0,0,0,75.5,56H84V83.5a1.5,1.5,0,0,0,3,0v-37A1.5,1.5,0,0,0,85.5,45Z"/><path d="M75.5,67A1.5,1.5,0,0,0,74,68.5v15a1.5,1.5,0,0,0,3,0v-15A1.5,1.5,0,0,0,75.5,67Z"/><path d="M25.5,67A1.5,1.5,0,0,0,24,68.5v15a1.5,1.5,0,0,0,3,0v-15A1.5,1.5,0,0,0,25.5,67Z"/><path d="M59.5,38h-17a1.5,1.5,0,0,0,0,3h17a1.5,1.5,0,0,0,0-3Z"/></svg>