<svg id="Слой_1" data-name="Слой 1" xmlns="http://www.w3.org/2000/svg" viewBox="0 0 101 101"><title>log_Монтажная область 12</title><path d="M80,20l-.85,0-.27,0H48.94l-.25,0-.8,0a16.5,16.5,0,0,0,0,33c4.44,0,9-2.47,12.56-6.79a4.47,4.47,0,0,1,3.46-1.64h0a4.46,4.46,0,0,1,3.45,1.63C70.94,50.52,75.53,53,80,53a16.5,16.5,0,0,0,0-33Zm0,30c-3.55,0-7.3-2.08-10.3-5.71a7.45,7.45,0,0,0-5.76-2.72h0a7.46,7.46,0,0,0-5.77,2.74c-3,3.62-6.7,5.69-10.24,5.69a13.5,13.5,0,0,1,0-27c.33,0,.66,0,1,0a1.43,1.43,0,0,0,.45,0H78.42a1.52,1.52,0,0,0,.5,0c.35,0,.71,0,1.06,0a13.5,13.5,0,0,1,0,27Z"/><path d="M76.64,28l-.58,0-.22,0H57.5a1.5,1.5,0,0,0,0,3h18a1.53,1.53,0,0,0,.44,0c.24,0,.48,0,.72,0,6.84,0,8.52,2.28,8.94,5.7A1.5,1.5,0,0,0,87.07,38h.18a1.5,1.5,0,0,0,1.31-1.67C87.64,28.86,81.32,28,76.64,28Z"/><path d="M69.5,62h-18A1.5,1.5,0,0,0,50,63.5v8A1.5,1.5,0,0,0,51.5,73h3.2c-.21,7.54-6.78,13.61-14.84,13.61S25,80.34,25,72.64V17.5A1.5,1.5,0,0,0,23.5,16h-8A1.5,1.5,0,0,0,14,17.5v55C14,86,25.6,97,39.86,97,53.93,97,65.4,86.28,65.71,73H69.5A1.5,1.5,0,0,0,71,71.5v-8A1.5,1.5,0,0,0,69.5,62ZM39.86,94C27.25,94,17,84.34,17,72.46V19h5V72.64c0,9.36,8,17,17.86,17S57.5,82.19,57.7,73h5C62.4,84.63,52.27,94,39.86,94ZM68,70H53V65H68Z"/></svg>