<svg id="Слой_1" data-name="Слой 1" xmlns="http://www.w3.org/2000/svg" viewBox="0 0 101 101"><title>log_Монтажная область 17</title><path d="M75.46,49A1.5,1.5,0,0,0,74,48H61.74l-10-15.32a1.56,1.56,0,0,0-2.51,0L39.26,48H26a1.5,1.5,0,0,0-1.42,1l-8,23.49a1.5,1.5,0,0,0,0,.86L21.1,90.88A1.5,1.5,0,0,0,22.55,92h54.9a1.5,1.5,0,0,0,1.45-1.12l4.55-17.51a1.5,1.5,0,0,0,0-.86Zm4.62,23H62V51H73ZM59,51V72H42V51ZM50.5,36.25,58.16,48H42.84ZM27,51H39V72H19.92ZM76.29,89H23.71L20.07,75H79.93Z"/><path d="M86.43,16.05a1.5,1.5,0,0,0-1.88-1l-80,25a1.5,1.5,0,1,0,.89,2.86l80-25A1.5,1.5,0,0,0,86.43,16.05Z"/><path d="M43.5,23.5a1.5,1.5,0,0,0,.44-.07l13-4a1.5,1.5,0,0,0-.88-2.87l-13,4a1.5,1.5,0,0,0,.44,2.93Z"/></svg>