<svg id="Слой_1" data-name="Слой 1" xmlns="http://www.w3.org/2000/svg" viewBox="0 0 101 101"><title>log_Монтажная область 27</title><path d="M93.26,45.61c-10.29-6-23.32-5.13-23.87-5.08A1.5,1.5,0,0,0,68,42v7H56.94l-3.81-8.14A1.5,1.5,0,0,0,51.77,40H45.67L35.32,13.76a1.51,1.51,0,0,0-1.63-.93c-19.12,3-25.28,14.8-25.54,15.3A1.51,1.51,0,0,0,8,28.8V75.5A1.5,1.5,0,0,0,9.5,77h83A1.5,1.5,0,0,0,94,75.5V46.9A1.5,1.5,0,0,0,93.26,45.61ZM57.16,56.54c-2.59,0-8.64,0-16.16.48V50.5a1.5,1.5,0,0,0-3,0v6.73a172.36,172.36,0,0,0-27,3.85v-10C25,43.31,41.62,43,44.14,43h6.67ZM15.85,23.67A36,36,0,0,1,33,16l4.35,11a48.8,48.8,0,0,0-20.19,5.14,1.5,1.5,0,1,0,1.35,2.68A45.5,45.5,0,0,1,38.5,30h0l4,10c-5.15.15-18.89,1.17-31.46,7.67V29.2A23.17,23.17,0,0,1,15.85,23.67ZM54,74V66.5a1.5,1.5,0,0,0-3,0V74H41V66.5a1.5,1.5,0,0,0-3,0V74H11V64.17c20.42-5.08,47.2-4.62,47.47-4.61h.09L65.33,74Zm37,0H68.65L58.34,52H69.5A1.5,1.5,0,0,0,71,50.5v-7c3.41-.06,12.51.24,20,4.31Z"/></svg>